# MagicaVoxel @ Ephtracy

# group
o 

# material
mtllib Tile_001.mtl
usemtl palette

# normals
vn -1 0 0
vn 1 0 0
vn 0 0 1
vn 0 0 -1
vn 0 -1 0
vn 0 1 0

# texcoords
vt 0.232422 0.5
vt 0.603516 0.5
vt 0.607422 0.5
vt 0.630859 0.5
vt 0.654297 0.5
vt 0.748047 0.5

# verts
v -0.5 0 0.5
v -0.5 0 -0.5
v -0.5 0.5 0.3
v -0.5 0.5 0.1
v -0.5 0.5 -0.2
v -0.5 0.5 -0.3
v -0.5 0.6 0.5
v -0.5 0.6 0.3
v -0.5 0.6 -0.1
v -0.5 0.6 -0.2
v -0.5 0.6 -0.4
v -0.5 0.6 -0.5
v -0.5 0.7 0.1
v -0.5 0.7 0
v -0.5 0.7 -0.3
v -0.5 0.7 -0.4
v -0.5 0.8 0
v -0.5 0.8 -0.1
v -0.5 1 0.5
v -0.5 1 -0.5
v 0.5 0 0.5
v 0.5 0 -0.5
v 0.5 0.5 0.4
v 0.5 0.5 0.3
v 0.5 0.5 0
v 0.5 0.5 -0.1
v 0.5 0.6 0.5
v 0.5 0.6 0.4
v 0.5 0.6 0.3
v 0.5 0.6 0.2
v 0.5 0.6 -0.2
v 0.5 0.6 -0.3
v 0.5 0.7 0.2
v 0.5 0.7 0.1
v 0.5 0.7 -0.1
v 0.5 0.7 -0.2
v 0.5 0.7 -0.4
v 0.5 0.7 -0.5
v 0.5 0.8 0.1
v 0.5 0.8 0
v 0.5 0.8 -0.3
v 0.5 0.8 -0.4
v 0.5 0.9 0.1
v 0.5 0.9 0
v 0.5 1 0.5
v 0.5 1 0.1
v 0.5 1 0
v 0.5 1 -0.5
v -0.5 0 0.5
v -0.5 0.6 0.5
v -0.5 1 0.5
v -0.3 0.5 0.5
v -0.3 0.6 0.5
v -0.3 0.9 0.5
v -0.3 1 0.5
v -0.2 0.5 0.5
v -0.2 0.6 0.5
v -0.2 0.9 0.5
v -0.2 1 0.5
v 0 0.6 0.5
v 0 0.7 0.5
v 0.1 0.6 0.5
v 0.1 0.7 0.5
v 0.2 0.5 0.5
v 0.2 0.6 0.5
v 0.4 0.5 0.5
v 0.4 0.6 0.5
v 0.5 0 0.5
v 0.5 0.6 0.5
v 0.5 1 0.5
v -0.5 0 -0.5
v -0.5 0.6 -0.5
v -0.5 1 -0.5
v -0.4 0.6 -0.5
v -0.4 0.7 -0.5
v -0.3 0.5 -0.5
v -0.3 0.7 -0.5
v -0.2 0.5 -0.5
v -0.2 0.6 -0.5
v -0.1 0.5 -0.5
v -0.1 0.6 -0.5
v 0 0.9 -0.5
v 0 1 -0.5
v 0.1 0.5 -0.5
v 0.1 0.6 -0.5
v 0.1 0.9 -0.5
v 0.1 1 -0.5
v 0.3 0.6 -0.5
v 0.3 0.8 -0.5
v 0.4 0.7 -0.5
v 0.4 0.8 -0.5
v 0.5 0 -0.5
v 0.5 0.7 -0.5
v 0.5 1 -0.5
v -0.5 0 0.5
v 0.5 0 0.5
v -0.5 0 -0.5
v 0.5 0 -0.5
v -0.5 1 0.5
v -0.3 1 0.5
v -0.2 1 0.5
v 0.5 1 0.5
v -0.3 1 0.4
v -0.2 1 0.4
v 0.2 1 0.3
v 0.4 1 0.3
v -0.3 1 0.2
v -0.1 1 0.2
v 0.1 1 0.2
v 0.2 1 0.2
v 0.4 1 0.2
v -0.4 1 0.1
v -0.3 1 0.1
v -0.2 1 0.1
v -0.1 1 0.1
v 0 1 0.1
v 0.1 1 0.1
v 0.4 1 0.1
v 0.5 1 0.1
v -0.4 1 0
v -0.2 1 0
v 0.4 1 0
v 0.5 1 0
v -0.3 1 -0.1
v -0.2 1 -0.1
v -0.1 1 -0.1
v 0 1 -0.1
v 0.1 1 -0.1
v 0.3 1 -0.1
v -0.3 1 -0.2
v -0.1 1 -0.2
v 0.1 1 -0.2
v 0.3 1 -0.2
v 0 1 -0.3
v 0.1 1 -0.3
v -0.5 1 -0.5
v 0 1 -0.5
v 0.1 1 -0.5
v 0.5 1 -0.5

# faces
f 3/1/1 2/1/1 1/1/1
f 4/1/1 2/1/1 3/1/1
f 5/1/1 2/1/1 4/1/1
f 6/1/1 2/1/1 5/1/1
f 7/1/1 3/1/1 1/1/1
f 8/6/1 4/6/1 3/6/1
f 8/1/1 3/1/1 7/1/1
f 9/1/1 5/1/1 4/1/1
f 10/6/1 6/6/1 5/6/1
f 10/1/1 5/1/1 9/1/1
f 11/1/1 2/1/1 6/1/1
f 12/1/1 2/1/1 11/1/1
f 13/6/1 4/6/1 8/6/1
f 13/1/1 9/1/1 4/1/1
f 13/6/1 8/6/1 7/6/1
f 14/1/1 9/1/1 13/1/1
f 15/6/1 6/6/1 10/6/1
f 15/1/1 11/1/1 6/1/1
f 15/6/1 10/6/1 9/6/1
f 16/6/1 12/6/1 11/6/1
f 16/1/1 11/1/1 15/1/1
f 17/1/1 9/1/1 14/1/1
f 17/6/1 14/6/1 13/6/1
f 18/6/1 15/6/1 9/6/1
f 18/1/1 9/1/1 17/1/1
f 18/6/1 16/6/1 15/6/1
f 19/6/1 17/6/1 13/6/1
f 19/6/1 13/6/1 7/6/1
f 19/6/1 18/6/1 17/6/1
f 20/6/1 12/6/1 16/6/1
f 20/6/1 18/6/1 19/6/1
f 20/6/1 16/6/1 18/6/1
f 21/1/2 22/1/2 23/1/2
f 23/1/2 22/1/2 24/1/2
f 24/1/2 22/1/2 25/1/2
f 25/1/2 22/1/2 26/1/2
f 21/1/2 23/1/2 27/1/2
f 23/6/2 24/6/2 28/6/2
f 27/1/2 23/1/2 28/1/2
f 24/1/2 25/1/2 29/1/2
f 28/6/2 24/6/2 29/6/2
f 29/1/2 25/1/2 30/1/2
f 26/1/2 22/1/2 31/1/2
f 31/1/2 22/1/2 32/1/2
f 30/1/2 25/1/2 33/1/2
f 27/6/2 28/6/2 33/6/2
f 28/6/2 29/6/2 33/6/2
f 29/6/2 30/6/2 33/6/2
f 33/1/2 25/1/2 34/1/2
f 25/6/2 26/6/2 35/6/2
f 26/1/2 31/1/2 35/1/2
f 31/6/2 32/6/2 36/6/2
f 35/1/2 31/1/2 36/1/2
f 32/1/2 22/1/2 37/1/2
f 37/1/2 22/1/2 38/1/2
f 34/1/2 25/1/2 39/1/2
f 33/6/2 34/6/2 39/6/2
f 25/6/2 35/6/2 40/6/2
f 39/1/2 25/1/2 40/1/2
f 35/6/2 36/6/2 40/6/2
f 36/6/2 32/6/2 41/6/2
f 40/6/2 36/6/2 41/6/2
f 32/1/2 37/1/2 41/1/2
f 37/6/2 38/6/2 42/6/2
f 41/1/2 37/1/2 42/1/2
f 39/6/2 40/6/2 43/6/2
f 33/6/2 39/6/2 43/6/2
f 41/6/2 42/6/2 43/6/2
f 40/6/2 41/6/2 43/6/2
f 43/6/2 42/6/2 44/6/2
f 27/6/2 33/6/2 45/6/2
f 33/6/2 43/6/2 45/6/2
f 43/5/2 44/5/2 46/5/2
f 45/6/2 43/6/2 46/6/2
f 44/6/2 42/6/2 47/6/2
f 46/5/2 44/5/2 47/5/2
f 42/6/2 38/6/2 48/6/2
f 47/6/2 42/6/2 48/6/2
f 52/1/3 50/1/3 49/1/3
f 53/6/3 51/6/3 50/6/3
f 53/1/3 50/1/3 52/1/3
f 54/6/3 51/6/3 53/6/3
f 55/6/3 51/6/3 54/6/3
f 56/1/3 52/1/3 49/1/3
f 56/6/3 53/6/3 52/6/3
f 56/6/3 54/6/3 53/6/3
f 57/6/3 54/6/3 56/6/3
f 58/5/3 55/5/3 54/5/3
f 58/6/3 54/6/3 57/6/3
f 59/5/3 55/5/3 58/5/3
f 60/1/3 57/1/3 56/1/3
f 60/6/3 58/6/3 57/6/3
f 60/6/3 59/6/3 58/6/3
f 61/6/3 59/6/3 60/6/3
f 62/1/3 60/1/3 56/1/3
f 62/1/3 61/1/3 60/1/3
f 63/6/3 59/6/3 61/6/3
f 63/1/3 61/1/3 62/1/3
f 64/1/3 56/1/3 49/1/3
f 64/1/3 62/1/3 56/1/3
f 65/6/3 63/6/3 62/6/3
f 65/1/3 62/1/3 64/1/3
f 66/1/3 64/1/3 49/1/3
f 66/6/3 65/6/3 64/6/3
f 67/6/3 63/6/3 65/6/3
f 67/6/3 65/6/3 66/6/3
f 68/1/3 66/1/3 49/1/3
f 68/1/3 67/1/3 66/1/3
f 69/6/3 63/6/3 67/6/3
f 69/1/3 67/1/3 68/1/3
f 70/6/3 59/6/3 63/6/3
f 70/6/3 63/6/3 69/6/3
f 71/1/4 72/1/4 74/1/4
f 72/6/4 73/6/4 74/6/4
f 74/6/4 73/6/4 75/6/4
f 71/1/4 74/1/4 76/1/4
f 74/1/4 75/1/4 76/1/4
f 75/6/4 73/6/4 77/6/4
f 76/1/4 75/1/4 77/1/4
f 71/1/4 76/1/4 78/1/4
f 76/6/4 77/6/4 78/6/4
f 78/6/4 77/6/4 79/6/4
f 71/1/4 78/1/4 80/1/4
f 78/1/4 79/1/4 80/1/4
f 79/6/4 77/6/4 81/6/4
f 80/1/4 79/1/4 81/1/4
f 77/6/4 73/6/4 82/6/4
f 81/6/4 77/6/4 82/6/4
f 80/6/4 81/6/4 82/6/4
f 82/6/4 73/6/4 83/6/4
f 71/1/4 80/1/4 84/1/4
f 80/6/4 82/6/4 84/6/4
f 84/6/4 82/6/4 85/6/4
f 82/5/4 83/5/4 86/5/4
f 85/6/4 82/6/4 86/6/4
f 86/5/4 83/5/4 87/5/4
f 84/1/4 85/1/4 88/1/4
f 85/6/4 86/6/4 88/6/4
f 86/6/4 87/6/4 88/6/4
f 88/6/4 87/6/4 89/6/4
f 88/1/4 89/1/4 90/1/4
f 89/6/4 87/6/4 91/6/4
f 90/1/4 89/1/4 91/1/4
f 71/1/4 84/1/4 92/1/4
f 84/1/4 88/1/4 92/1/4
f 88/1/4 90/1/4 92/1/4
f 90/6/4 91/6/4 93/6/4
f 92/1/4 90/1/4 93/1/4
f 91/6/4 87/6/4 94/6/4
f 93/6/4 91/6/4 94/6/4
f 97/1/5 96/1/5 95/1/5
f 98/1/5 96/1/5 97/1/5
f 99/6/6 100/6/6 103/6/6
f 100/5/6 101/5/6 103/5/6
f 101/6/6 102/6/6 104/6/6
f 103/5/6 101/5/6 104/5/6
f 103/6/6 104/6/6 105/6/6
f 104/6/6 102/6/6 105/6/6
f 105/6/6 102/6/6 106/6/6
f 99/6/6 103/6/6 107/6/6
f 103/6/6 105/6/6 107/6/6
f 107/6/6 105/6/6 108/6/6
f 108/6/6 105/6/6 109/6/6
f 105/4/6 106/4/6 110/4/6
f 109/6/6 105/6/6 110/6/6
f 106/6/6 102/6/6 111/6/6
f 110/4/6 106/4/6 111/4/6
f 99/6/6 107/6/6 112/6/6
f 107/3/6 108/3/6 113/3/6
f 112/6/6 107/6/6 113/6/6
f 113/3/6 108/3/6 114/3/6
f 108/4/6 109/4/6 115/4/6
f 114/3/6 108/3/6 115/3/6
f 115/4/6 109/4/6 116/4/6
f 109/6/6 110/6/6 117/6/6
f 116/4/6 109/4/6 117/4/6
f 110/6/6 111/6/6 117/6/6
f 111/6/6 102/6/6 118/6/6
f 117/6/6 111/6/6 118/6/6
f 118/6/6 102/6/6 119/6/6
f 113/4/6 114/4/6 120/4/6
f 99/6/6 112/6/6 120/6/6
f 112/4/6 113/4/6 120/4/6
f 115/2/6 116/2/6 121/2/6
f 120/4/6 114/4/6 121/4/6
f 114/2/6 115/2/6 121/2/6
f 116/6/6 117/6/6 122/6/6
f 118/5/6 119/5/6 122/5/6
f 117/6/6 118/6/6 122/6/6
f 122/5/6 119/5/6 123/5/6
f 120/6/6 121/6/6 124/6/6
f 121/2/6 116/2/6 125/2/6
f 124/6/6 121/6/6 125/6/6
f 125/2/6 116/2/6 126/2/6
f 116/6/6 122/6/6 127/6/6
f 126/2/6 116/2/6 127/2/6
f 122/6/6 123/6/6 127/6/6
f 127/6/6 123/6/6 128/6/6
f 128/6/6 123/6/6 129/6/6
f 120/6/6 124/6/6 130/6/6
f 125/4/6 126/4/6 130/4/6
f 124/4/6 125/4/6 130/4/6
f 127/6/6 128/6/6 131/6/6
f 130/4/6 126/4/6 131/4/6
f 126/6/6 127/6/6 131/6/6
f 128/4/6 129/4/6 132/4/6
f 131/6/6 128/6/6 132/6/6
f 129/6/6 123/6/6 133/6/6
f 132/4/6 129/4/6 133/4/6
f 131/6/6 132/6/6 134/6/6
f 130/6/6 131/6/6 134/6/6
f 132/6/6 133/6/6 134/6/6
f 134/6/6 133/6/6 135/6/6
f 99/6/6 120/6/6 136/6/6
f 120/6/6 130/6/6 136/6/6
f 130/6/6 134/6/6 136/6/6
f 134/5/6 135/5/6 137/5/6
f 136/6/6 134/6/6 137/6/6
f 135/6/6 133/6/6 138/6/6
f 137/5/6 135/5/6 138/5/6
f 133/6/6 123/6/6 139/6/6
f 138/6/6 133/6/6 139/6/6
